<svg width="20" height="20" viewBox="0 0 20 20" fill="none" xmlns="http://www.w3.org/2000/svg">
<g id="Group 239531">
<circle id="Ellipse 888" cx="10" cy="10" r="10" fill="white"/>
<path id="Vector" d="M10.3081 6.05966C10.1262 6.20352 9.86928 6.20342 9.68749 6.05943C8.99789 5.51319 8.11235 5.35836 7.3037 5.6331L10.3081 6.05966ZM10.3081 6.05966C10.998 5.514 11.8835 5.35914 12.6924 5.63318C14.2006 6.14629 14.8417 7.92929 14.3275 9.62434C14.0356 10.5107 13.5588 11.3116 12.9356 11.9672C12.0389 12.8868 11.055 13.7033 10.0003 14.4034M10.3081 6.05966L10.0003 14.4034M10.0003 14.4034C8.94565 13.7033 7.96179 12.8869 7.06507 11.9672C6.44191 11.3116 5.96508 10.5107 5.6731 9.62437C5.15857 7.92809 5.79629 6.14589 7.30357 5.63315L10.0003 14.4034Z" stroke="#FF8300" stroke-linecap="round" stroke-linejoin="round"/>
</g>
</svg>
