<svg width="25" height="25" viewBox="0 0 25 25" fill="none" xmlns="http://www.w3.org/2000/svg">
<path d="M19.5034 15.4809L19.5034 15.4809L19.5054 15.4842C19.792 15.9546 19.8413 16.5049 19.6523 17.0065C19.459 17.5197 19.0642 17.9024 18.5575 18.0689L18.5575 18.0689L18.5534 18.0703C16.6122 18.7207 14.5678 19.0418 12.5208 19.0418C10.4739 19.0418 8.43079 18.7207 6.49158 18.061L6.49007 18.0605C5.90366 17.8623 5.50331 17.4698 5.34151 17.0181L5.34153 17.0181L5.33937 17.0122C5.16589 16.5403 5.21523 16.0056 5.52839 15.4801C5.52873 15.4795 5.52907 15.4789 5.5294 15.4784L6.57928 13.7425L6.57936 13.7425L6.58536 13.7322C6.74074 13.4659 6.86587 13.1204 6.95161 12.805C7.03722 12.4902 7.10419 12.1295 7.10419 11.8231V9.18766C7.10419 7.06955 8.33661 5.22831 10.1257 4.33834L10.3332 4.23512L10.4463 4.03285C10.8573 3.29782 11.6296 2.8335 12.4896 2.8335C13.3663 2.8335 14.1162 3.28285 14.5241 4.00462L14.6405 4.21052L14.854 4.31241C16.6773 5.18283 17.9375 7.04098 17.9375 9.18766V11.8231C17.9375 12.1295 18.0045 12.4901 18.0898 12.8055C18.1757 13.1226 18.2999 13.4671 18.4519 13.735L18.4567 13.7434L18.4617 13.7518L19.5034 15.4809Z" stroke="#FF8300" stroke-width="1.5"/>
<path d="M15.4474 20.8439C15.0099 22.0522 13.8537 22.9168 12.4995 22.9168C11.6766 22.9168 10.8641 22.5835 10.2912 21.9897C9.95784 21.6772 9.70785 21.2606 9.56201 20.8335C9.69743 20.8543 9.83284 20.8647 9.97868 20.8856C10.2183 20.9168 10.4683 20.9481 10.7183 20.9689C11.312 21.021 11.9162 21.0522 12.5204 21.0522C13.1141 21.0522 13.7079 21.021 14.2912 20.9689C14.5099 20.9481 14.7287 20.9377 14.937 20.9064C15.1037 20.8856 15.2704 20.8647 15.4474 20.8439Z" fill="#FF8300"/>
</svg>
