<svg width="25" height="25" viewBox="0 0 25 25" fill="none" xmlns="http://www.w3.org/2000/svg">
<path d="M15.5118 13.6168L15.512 13.6167C15.5469 13.5929 15.5734 13.5588 15.5877 13.5191C15.595 13.4948 15.5975 13.4693 15.5953 13.4439L15.5953 13.4438C15.5929 13.4174 15.5852 13.3913 15.5722 13.367L16.2336 13.0134M15.5118 13.6168L12.6414 7.60853C12.6789 7.64612 12.7 7.69703 12.7 7.74999V11.816V12.3573L13.2138 12.5278L15.4178 13.2593L15.434 13.2647L15.4504 13.2693C15.4762 13.2766 15.5004 13.2891 15.5215 13.306C15.5426 13.3231 15.5599 13.344 15.5724 13.3674L16.2336 13.0134M15.5118 13.6168C15.4759 13.6412 15.4328 13.6533 15.3891 13.651L15.3789 13.6505M15.5118 13.6168L15.3789 13.6505M16.2336 13.0134C16.1733 12.9007 16.0908 12.8014 15.9913 12.7213L16.3423 13.3769C16.3309 13.2496 16.2938 13.126 16.2336 13.0134ZM15.3789 13.6505L15.3687 13.6502M15.3789 13.6505L15.3687 13.6502M15.3687 13.6502C15.3343 13.6494 15.3002 13.6445 15.2669 13.6356L12.4361 12.6919M15.3687 13.6502L12.4361 12.6919M12.3 12.5V12.5018C12.2999 12.544 12.3131 12.5849 12.3372 12.6187L12.3 12.5ZM12.3 12.5V7.74999M12.3 12.5V7.74999M12.4361 12.6919C12.4358 12.6918 12.4355 12.6917 12.4351 12.6916M12.4361 12.6919L12.4351 12.6916M12.4351 12.6916C12.3958 12.6781 12.3616 12.6527 12.3373 12.6188L12.4351 12.6916ZM12.3 7.74999C12.3 7.69703 12.3211 7.64612 12.3586 7.60853M12.3 7.74999L12.3586 7.60853M12.3586 7.60853C12.3586 7.60852 12.3586 7.60852 12.3586 7.60851C12.3961 7.57109 12.4469 7.55 12.5 7.55C12.5531 7.55 12.6039 7.57109 12.6414 7.60851L12.3586 7.60853ZM6.80541 3.97743L6.80541 3.97743C5.11981 5.10372 3.80604 6.70454 3.03024 8.57749C2.25444 10.4504 2.05146 12.5114 2.44695 14.4997C2.84245 16.488 3.81867 18.3143 5.25215 19.7478L5.25217 19.7479C6.68565 21.1813 8.51202 22.1575 10.5003 22.5531L10.5003 22.5531C12.4886 22.9485 14.5496 22.7456 16.4225 21.9697C18.2955 21.1939 19.8963 19.8802 21.0226 18.1946C22.1488 16.509 22.75 14.5272 22.75 12.5C22.75 11.1539 22.4848 9.82107 21.9698 8.57751C21.4547 7.33391 20.6997 6.20395 19.7479 5.25215C18.7961 4.30035 17.6661 3.54534 16.4225 3.03023C15.1789 2.51512 13.846 2.25 12.5 2.25C10.4728 2.25 8.49101 2.85115 6.80541 3.97743Z" stroke="#FF8300" stroke-width="1.5"/>
</svg>
