<svg width="10" height="10" viewBox="0 0 10 10" fill="none" xmlns="http://www.w3.org/2000/svg">
<g clip-path="url(#clip0_70_260)">
<path d="M4.5 4.5002H5C5.26 4.5002 5.473 4.6982 5.498 4.9522L5.5 5.0002V6.5002C5.776 6.5002 6 6.7242 6 7.0002C6 7.2602 5.802 7.4742 5.548 7.4982L5.5 7.5002H5C4.74 7.5002 4.527 7.3022 4.502 7.0482L4.5 7.0002V5.5002C4.224 5.5002 4 5.2762 4 5.0002C4 4.7402 4.198 4.5262 4.452 4.5022L4.5 4.5002ZM5 2.4502C5.304 2.4502 5.55 2.6962 5.55 3.0002C5.55 3.3042 5.304 3.5502 5 3.5502C4.697 3.5502 4.45 3.3042 4.45 3.0002C4.45 2.6962 4.697 2.4502 5 2.4502Z" fill="black"/>
<path d="M5 0C7.757 0 10 2.243 10 5C10 7.757 7.757 10 5 10C2.243 10 0 7.757 0 5C0 2.243 2.243 0 5 0ZM5 1C2.794 1 1 2.794 1 5C1 7.205 2.794 9 5 9C7.205 9 9 7.205 9 5C9 2.794 7.205 1 5 1Z" fill="black"/>
</g>
<defs>
<clipPath id="clip0_70_260">
<rect width="10" height="10" fill="white"/>
</clipPath>
</defs>
</svg>
