<svg width="25" height="25" viewBox="0 0 25 25" fill="none" xmlns="http://www.w3.org/2000/svg">
<path d="M20.13 18.75H20.63V20.5C20.63 21.4302 19.8086 22.25 18.7619 22.25H5.2275C4.19604 22.25 3.39938 21.4448 3.39938 20.5L3.39938 20.498L3.39461 18.75H3.88187H20.13ZM20.63 13.3932L20.0084 13.5097C20.0088 13.5096 20.0091 13.5095 20.0091 13.5095C20.009 13.5087 19.9741 13.5116 19.8834 13.5127C19.7831 13.514 19.6568 13.5132 19.5241 13.5113C19.4075 13.5097 19.278 13.5071 19.1639 13.5048C19.0375 13.5022 18.93 13.5 18.88 13.5C18.4433 13.5 17.8335 13.1129 17.3137 12.2532L16.7071 11.25H21.255V11.75C21.255 12.4322 21.1133 12.7805 20.8084 13.1394L20.63 13.3494V13.3932ZM12.105 11.25H16.5523L16.0071 12.2941C15.6185 13.0381 14.885 13.5 14.3038 13.5C13.9868 13.5 13.6275 13.3977 13.3123 13.2115C12.9943 13.0236 12.7783 12.785 12.6812 12.5637L12.105 11.25ZM7.31313 11.25H11.8691L11.3047 12.5702C11.2096 12.7927 10.9948 13.0285 10.6716 13.2141C10.3515 13.398 9.97923 13.5 9.64437 13.5C9.06702 13.5 8.34735 13.0717 7.94598 12.3647L7.31313 11.25ZM2.75197 11.25H7.1883L6.62074 12.404C6.46728 12.716 6.19328 13 5.8745 13.2073C5.544 13.4222 5.25155 13.5 5.10749 13.5H3.88H3.38029L3.37991 13.3606L3.21584 13.1559C2.94722 12.8208 2.755 12.2635 2.755 11.75C2.755 11.6193 2.75375 11.4673 2.75249 11.3135C2.75231 11.2923 2.75214 11.2712 2.75197 11.25ZM3.30848 8.5L6.06965 3.75H17.9197L20.6809 8.5H3.30848Z" stroke="#FF8300" stroke-width="1.5"/>
</svg>
