<svg width="18" height="18" viewBox="0 0 18 18" fill="none" xmlns="http://www.w3.org/2000/svg">
<g clip-path="url(#clip0_78_3427)">
<path d="M12.3647 2.48236L12.3645 2.48198C12.1657 2.11625 11.878 1.80581 11.5244 1.58704C11.1702 1.36793 10.7643 1.24998 10.3475 1.25C10.3475 1.25 10.3475 1.25 10.3474 1.25H7.6854L7.68518 1.25C7.27628 1.25012 6.87775 1.36377 6.52822 1.57531C6.17932 1.78647 5.89302 2.08659 5.69144 2.44157C5.69138 2.44167 5.69132 2.44178 5.69126 2.44188L5.29457 3.13993H4.275C3.45297 3.13993 2.67768 3.49354 2.11572 4.10117C1.55558 4.70682 1.25 5.51657 1.25 6.34979V13.5401C1.25 14.3734 1.55558 15.1831 2.11572 15.7888C2.67768 16.3964 3.45297 16.75 4.275 16.75H13.725C14.1307 16.75 14.5309 16.6635 14.9022 16.4972C15.2732 16.3311 15.6064 16.0893 15.8843 15.7888C16.1621 15.4884 16.3797 15.1349 16.5272 14.7498C16.6747 14.3648 16.75 13.9539 16.75 13.5401V6.34979C16.75 5.93605 16.6747 5.52517 16.5272 5.14014C16.3797 4.75506 16.1621 4.40156 15.8843 4.10117C15.6064 3.80065 15.2732 3.55886 14.9022 3.39269C14.5309 3.22643 14.1308 3.13993 13.725 3.13993H12.7216L12.3647 2.48236Z" stroke="#272727" stroke-width="1.5"/>
</g>
<defs>
<clipPath id="clip0_78_3427">
<rect width="18" height="18" fill="white"/>
</clipPath>
</defs>
</svg>
