<svg width="25" height="25" viewBox="0 0 25 25" fill="none" xmlns="http://www.w3.org/2000/svg">
<path fill-rule="evenodd" clip-rule="evenodd" d="M7.79818 22.3957H16.4938C19.6879 22.3957 22.1383 21.242 21.4424 16.5987L20.6319 10.3057C20.2028 7.98878 18.725 7.10205 17.4282 7.10205H6.82564C5.50985 7.10205 4.11779 8.05553 3.62197 10.3057L2.81153 16.5987C2.22038 20.7176 4.60406 22.3957 7.79818 22.3957Z" stroke="#FF8300" stroke-width="1.5" stroke-linecap="round" stroke-linejoin="round"/>
<path d="M7.65517 6.87347C7.65517 4.38798 9.67005 2.37309 12.1555 2.37309C13.3524 2.36801 14.502 2.83992 15.3501 3.68446C16.1982 4.52899 16.675 5.67659 16.675 6.87347" stroke="#FF8300" stroke-width="1.5" stroke-linecap="round" stroke-linejoin="round"/>
<path d="M9.0663 11.5645H9.11398" stroke="#FF8300" stroke-width="1.5" stroke-linecap="round" stroke-linejoin="round"/>
<path d="M15.1399 11.5645H15.1876" stroke="#FF8300" stroke-width="1.5" stroke-linecap="round" stroke-linejoin="round"/>
</svg>
