<svg width="280" height="280" viewBox="0 0 280 280" fill="none" xmlns="http://www.w3.org/2000/svg">
<path d="M279.986 139.993C279.986 217.308 217.309 280 139.993 280C62.6779 280 0 217.308 0 139.993C0 62.6779 59.0759 3.65598 133.288 0.148398C135.514 0.0539629 137.754 0 139.993 0C142.233 0 144.472 0.0404722 146.698 0.148398C220.897 3.65598 279.986 64.9173 279.986 139.993Z" fill="white"/>
<path d="M139.993 277.828C216.117 277.828 277.828 216.117 277.828 139.993C277.828 63.869 216.117 2.15831 139.993 2.15831C63.8692 2.15831 2.15855 63.869 2.15855 139.993C2.15855 216.117 63.8692 277.828 139.993 277.828Z" fill="#FF8300"/>
<path d="M139.993 258.833C205.627 258.833 258.833 205.626 258.833 139.993C258.833 74.3596 205.627 21.1533 139.993 21.1533C74.3599 21.1533 21.1535 74.3596 21.1535 139.993C21.1535 205.626 74.3599 258.833 139.993 258.833Z" fill="white"/>
<path d="M222.435 222.435C233.308 211.561 241.578 199.069 247.258 185.74L139.993 139.993L185.74 247.258C199.069 241.578 211.561 233.308 222.435 222.435Z" fill="#CC0A60"/>
<path d="M57.5513 222.435C68.4248 233.308 80.9172 241.578 94.2461 247.258L139.993 139.993L32.7284 185.74C38.408 199.069 46.6778 211.561 57.5513 222.435Z" fill="#006F67"/>
<path d="M57.5513 57.5515C46.6778 68.4251 38.408 80.9175 32.7284 94.2463L139.993 139.993L94.2461 32.7286C80.9172 38.4082 68.4248 46.678 57.5513 57.5515Z" fill="#FF260D"/>
<path d="M222.435 57.5515C211.561 46.678 199.069 38.4082 185.74 32.7286L139.993 139.993L247.258 94.2463C241.578 80.9175 233.308 68.4251 222.435 57.5515Z" fill="#FED319"/>
<path d="M245.018 190.691C252.438 175.366 256.593 158.165 256.593 139.993C256.593 121.821 252.438 104.62 245.018 89.2949C245.814 90.9273 246.556 92.5867 247.271 94.246L140.007 139.993L247.271 185.74C246.556 187.399 245.814 189.059 245.018 190.691Z" fill="#19E1E1"/>
<path d="M34.968 89.2949C27.5481 104.62 23.393 121.821 23.393 139.993C23.393 158.165 27.5481 175.366 34.968 190.691C34.1721 189.059 33.4301 187.399 32.7151 185.74L139.98 139.993L32.7286 94.246C33.4436 92.5867 34.1856 90.9273 34.9815 89.2949H34.968Z" fill="#808080"/>
<path d="M190.691 34.9678C175.366 27.5479 158.165 23.3927 139.993 23.3927C121.821 23.3927 104.62 27.5479 89.2949 34.9678C90.9273 34.1853 92.5867 33.4298 94.246 32.7148L139.993 139.98L185.74 32.7283C187.399 33.4433 189.059 34.1853 190.691 34.9813V34.9678Z" fill="#FE7A18"/>
<path d="M185.74 247.258L139.993 139.993L94.246 247.258C92.5867 246.543 90.9273 245.801 89.2949 245.005C104.62 252.425 121.821 256.58 139.993 256.58C158.165 256.58 175.366 252.425 190.691 245.005C189.059 245.801 187.399 246.543 185.74 247.258Z" fill="#3D08EA"/>
<g filter="url(#filter0_d_156_168)">
<path d="M139.157 133.187L104.152 133.187L99.2631 140.197L104.152 147.207L139.157 147.207C139.26 144.88 139.319 142.538 139.319 140.197C139.319 137.856 139.275 135.514 139.157 133.187Z" fill="white"/>
<path d="M138.819 140.197C138.819 138.022 138.78 135.848 138.68 133.688L104.413 133.688L99.8735 140.197L104.413 146.706L138.677 146.706C138.768 144.543 138.819 142.37 138.819 140.197Z" stroke="white"/>
</g>
<path style="mix-blend-mode:multiply" opacity="0.6" d="M136.769 164.951C148.526 164.951 158.057 155.42 158.057 143.663C158.057 131.905 148.526 122.374 136.769 122.374C125.012 122.374 115.48 131.905 115.48 143.663C115.48 155.42 125.012 164.951 136.769 164.951Z" fill="url(#paint0_radial_156_168)"/>
<path d="M150.999 149.312C156.138 143.237 155.38 134.146 149.305 129.006C143.229 123.867 134.138 124.626 128.999 130.701C123.86 136.776 124.618 145.867 130.693 151.006C136.768 156.146 145.86 155.387 150.999 149.312Z" fill="#FF8300"/>
<path d="M149.637 128.614C155.928 133.937 156.714 143.352 151.391 149.644C146.069 155.936 136.653 156.721 130.362 151.399C124.07 146.076 123.284 136.661 128.607 130.369C133.929 124.077 143.345 123.291 149.637 128.614Z" stroke="white" stroke-width="3"/>
<defs>
<filter id="filter0_d_156_168" x="91.2518" y="127.179" width="56.0788" height="30.0422" filterUnits="userSpaceOnUse" color-interpolation-filters="sRGB">
<feFlood flood-opacity="0" result="BackgroundImageFix"/>
<feColorMatrix in="SourceAlpha" type="matrix" values="0 0 0 0 0 0 0 0 0 0 0 0 0 0 0 0 0 0 127 0" result="hardAlpha"/>
<feOffset dy="2"/>
<feGaussianBlur stdDeviation="4"/>
<feComposite in2="hardAlpha" operator="out"/>
<feColorMatrix type="matrix" values="0 0 0 0 0 0 0 0 0 0 0 0 0 0 0 0 0 0 0.5 0"/>
<feBlend mode="normal" in2="BackgroundImageFix" result="effect1_dropShadow_156_168"/>
<feBlend mode="normal" in="SourceGraphic" in2="effect1_dropShadow_156_168" result="shape"/>
</filter>
<radialGradient id="paint0_radial_156_168" cx="0" cy="0" r="1" gradientUnits="userSpaceOnUse" gradientTransform="translate(136.769 143.663) scale(21.2884 21.2884)">
<stop offset="0.63" stop-color="#662E29"/>
<stop offset="0.66" stop-color="#75423E"/>
<stop offset="0.78" stop-color="#AF9290"/>
<stop offset="0.88" stop-color="#DACDCB"/>
<stop offset="0.96" stop-color="#F4F1F0"/>
<stop offset="1" stop-color="white"/>
</radialGradient>
</defs>
</svg>
