<svg width="18" height="18" viewBox="0 0 18 18" fill="none" xmlns="http://www.w3.org/2000/svg">
<path d="M11.5831 15.2362C12.8165 14.7253 13.8707 13.8601 14.6124 12.7501C15.3541 11.6401 15.75 10.335 15.75 8.99999C15.75 8.11357 15.5754 7.23582 15.2362 6.41691C14.897 5.59794 14.3998 4.85382 13.773 4.22702L13.2427 4.75736L13.773 4.22702C13.1462 3.60023 12.4021 3.10303 11.5831 2.76381C10.7642 2.42459 9.88641 2.25 9 2.25C7.66499 2.25 6.35994 2.64588 5.2499 3.38758L5.2499 3.38758C4.13987 4.12928 3.27471 5.18348 2.76382 6.41688C2.25292 7.65027 2.11925 9.00749 2.3797 10.3168C2.64015 11.6262 3.28303 12.8289 4.22702 13.773L4.22704 13.773C5.17104 14.717 6.37377 15.3598 7.68313 15.6203L7.68316 15.6203C8.9925 15.8807 10.3497 15.7471 11.5831 15.2362ZM11.5831 15.2362L11.2961 14.5433M11.5831 15.2362L11.2961 14.5433M11.2961 14.5433C10.1998 14.9974 8.99334 15.1162 7.82946 14.8847L14.5433 6.7039C14.8448 7.43185 15 8.21207 15 8.99999C15 10.1867 14.6481 11.3467 13.9888 12.3334C13.3295 13.3201 12.3925 14.0891 11.2961 14.5433ZM9.42426 5.57573C9.53676 5.68825 9.6 5.84086 9.6 6V8.56799L10.8376 9.61008L10.8373 9.61001L10.8309 9.60794L10.8293 9.60741L10.829 9.60774L10.8143 9.62609L10.78 9.66878L10.7716 9.67925L10.7525 9.73644C10.7539 9.73727 10.7553 9.73807 10.7567 9.73885C10.7667 9.74434 10.7773 9.7487 10.7884 9.75183L10.772 9.74719L10.7558 9.74181L10.7512 9.74031L10.608 10.17L10.7354 9.73507L9.36375 9.27981L8.95219 9.14322L8.808 9.56999L8.95045 9.14264L8.85 9.1093V9.10881L8.51208 9.35075M9.42426 5.57573C9.31176 5.46321 9.15912 5.4 9 5.4C8.84088 5.4 8.68824 5.46321 8.57574 5.57573M9.42426 5.57573L9.00001 5.99991M9.42426 5.57573L9 5.9999L8.57574 5.57573M8.57574 5.57573C8.46324 5.68825 8.4 5.84086 8.4 6V8.99999C8.3997 9.12575 8.43888 9.24851 8.51208 9.35075M8.57574 5.57573L8.99999 5.99991L8.99991 6L8.89388 6.10601C8.86583 6.07796 8.85 6.03986 8.85 6V8.56799V8.99999V9.00107V9.10876L8.51208 9.35075" stroke="#272727" stroke-width="1.5"/>
</svg>
