<svg width="25" height="25" viewBox="0 0 25 25" fill="none" xmlns="http://www.w3.org/2000/svg">
<path d="M22.2215 9.12501C21.7197 7.92976 20.9896 6.84336 20.0719 5.92636C19.157 5.00776 18.0702 4.27742 16.8732 3.77681C15.647 3.26147 14.3295 2.99732 12.999 3.00002H12.9542C11.6009 3.00672 10.2924 3.27457 9.05985 3.80136C7.87313 4.30711 6.79653 5.03874 5.89022 5.95537C4.98145 6.87032 4.25971 7.95292 3.7652 9.14287C3.25188 10.3803 2.99177 11.7077 3.0002 13.0469C3.00691 14.596 3.37823 16.1339 4.07165 17.5089V20.9018C4.07165 21.4688 4.53245 21.9286 5.09837 21.9286H8.49392C9.87825 22.6256 11.4059 22.9924 12.9565 23H13.0034C14.3411 23 15.6362 22.7411 16.8575 22.2344C18.0485 21.7397 19.1312 21.0179 20.0451 20.1094C20.9666 19.1964 21.6914 18.1295 22.1991 16.9397C22.7248 15.7076 22.9932 14.3973 22.9999 13.0447C23.0044 11.6853 22.7405 10.3661 22.2215 9.12501ZM8.53418 14.0714C7.94365 14.0714 7.46273 13.5915 7.46273 13C7.46273 12.4085 7.94365 11.9286 8.53418 11.9286C9.12471 11.9286 9.60564 12.4085 9.60564 13C9.60564 13.5915 9.12695 14.0714 8.53418 14.0714ZM12.999 14.0714C12.4084 14.0714 11.9275 13.5915 11.9275 13C11.9275 12.4085 12.4084 11.9286 12.999 11.9286C13.5895 11.9286 14.0704 12.4085 14.0704 13C14.0704 13.5915 13.5895 14.0714 12.999 14.0714ZM17.4637 14.0714C16.8732 14.0714 16.3923 13.5915 16.3923 13C16.3923 12.4085 16.8732 11.9286 17.4637 11.9286C18.0543 11.9286 18.5352 12.4085 18.5352 13C18.5352 13.5915 18.0543 14.0714 17.4637 14.0714Z" stroke="#FF8300" stroke-width="1.5"/>
</svg>
