<svg width="15" height="15" viewBox="0 0 15 15" fill="none" xmlns="http://www.w3.org/2000/svg">
<path d="M7.18274 1.74336H4.84586C2.92399 1.74336 1.71899 3.10399 1.71899 5.03024V10.2265C1.71899 12.1527 2.91836 13.5134 4.84586 13.5134H10.3609C12.289 13.5134 13.4884 12.1527 13.4884 10.2265V7.70899M9.47829 2.87681L12.332 5.73056M5.51742 6.8258L10.188 2.15518C10.7699 1.57393 11.713 1.57393 12.2949 2.15518L13.0555 2.9158C13.6374 3.49768 13.6374 4.44143 13.0555 5.02268L8.36242 9.7158C8.10804 9.97018 7.76304 10.1133 7.40304 10.1133H5.06179L5.12054 7.7508C5.12929 7.4033 5.27117 7.07205 5.51742 6.8258Z" stroke="#FEFEFE" stroke-width="1.2" stroke-linecap="round" stroke-linejoin="round"/>
</svg>
