<svg width="8" height="10" viewBox="0 0 8 10" fill="none" xmlns="http://www.w3.org/2000/svg">
<path d="M7.66022 4.52553C7.43961 4.03716 7.11891 3.59883 6.71817 3.23795L6.38749 2.93952C6.37627 2.92967 6.36275 2.92268 6.34813 2.91916C6.33352 2.91564 6.31825 2.9157 6.30366 2.91934C6.28908 2.92299 6.27562 2.93009 6.26448 2.94004C6.25334 2.94999 6.24485 2.96248 6.23977 2.97641L6.09204 3.39331C5.99999 3.65485 5.83068 3.92198 5.5909 4.18464C5.57499 4.2014 5.55681 4.20587 5.54431 4.20699C5.53181 4.20811 5.51249 4.20587 5.49545 4.19022C5.47954 4.17681 5.47158 4.15669 5.47272 4.13657C5.51477 3.46372 5.31022 2.70481 4.8625 1.87883C4.49204 1.19257 3.97727 0.657191 3.33409 0.283881L2.86477 0.0122814C2.80341 -0.0234848 2.725 0.0234583 2.72841 0.093873L2.75341 0.630366C2.77045 0.99697 2.72727 1.3211 2.625 1.59047C2.5 1.92019 2.32045 2.22643 2.09091 2.50139C1.93116 2.69247 1.7501 2.86531 1.55113 3.01664C1.07194 3.37896 0.682287 3.84322 0.411363 4.37464C0.141107 4.9107 0.000329728 5.5009 0 6.09925C0 6.6268 0.105682 7.13758 0.314772 7.61931C0.516666 8.08312 0.80802 8.50405 1.17273 8.85883C1.54091 9.2165 1.96818 9.49815 2.44432 9.69375C2.9375 9.89717 3.46022 10 4 10C4.53977 10 5.0625 9.89717 5.55568 9.69487C6.03064 9.50042 6.46254 9.21683 6.82727 8.85995C7.19545 8.50229 7.48408 8.08427 7.68522 7.62043C7.89399 7.14002 8.0011 6.62282 7.99999 6.10036C7.99999 5.55493 7.88636 5.02514 7.66022 4.52553Z" fill="#FF8300"/>
</svg>
