<svg width="14" height="14" viewBox="0 0 14 14" fill="none" xmlns="http://www.w3.org/2000/svg">
<path fill-rule="evenodd" clip-rule="evenodd" d="M2.47278 6.06145C2.48118 3.58778 4.4933 1.58928 6.96699 1.59768C9.44068 1.60609 11.4392 3.61821 11.4308 6.0919V6.1426C11.4003 7.75055 10.5025 9.23683 9.40177 10.3984C8.77223 11.0521 8.06926 11.6308 7.30684 12.123C7.10297 12.2994 6.80057 12.2994 6.59669 12.123C5.46007 11.3832 4.46249 10.4492 3.64959 9.36365C2.92507 8.41701 2.51371 7.26802 2.47278 6.07668V6.06145Z" stroke="#FEFEFE" stroke-width="1.2" stroke-linecap="round" stroke-linejoin="round"/>
<path d="M6.95187 7.58342C7.74467 7.58342 8.38737 6.94072 8.38737 6.14791C8.38737 5.3551 7.74467 4.7124 6.95187 4.7124C6.15906 4.7124 5.51636 5.3551 5.51636 6.14791C5.51636 6.94072 6.15906 7.58342 6.95187 7.58342Z" stroke="#FEFEFE" stroke-width="1.2" stroke-linecap="round" stroke-linejoin="round"/>
</svg>
