<svg width="24" height="24" viewBox="0 0 24 24" fill="none" xmlns="http://www.w3.org/2000/svg">
<path d="M16.3929 7C16.3929 9.32773 14.4465 11.25 12 11.25C9.55353 11.25 7.60714 9.32773 7.60714 7C7.60714 4.67227 9.55353 2.75 12 2.75C14.4465 2.75 16.3929 4.67227 16.3929 7ZM12 14.625C13.0956 14.625 14.1393 14.3993 15.0848 14H15.6C18.1871 14 20.25 16.0356 20.25 18.5V20.125C20.25 20.7262 19.742 21.25 19.0714 21.25H4.92857C4.258 21.25 3.75 20.7262 3.75 20.125V18.5C3.75 16.0356 5.81291 14 8.4 14H8.91575C9.86339 14.3989 10.9035 14.625 12 14.625Z" stroke="#8F959E" stroke-width="1.5"/>
</svg>
