<svg width="25" height="25" viewBox="0 0 25 25" fill="none" xmlns="http://www.w3.org/2000/svg">
<path fill-rule="evenodd" clip-rule="evenodd" d="M12.251 21.7227C9.99 20.3311 7.88658 18.6933 5.97843 16.8388C4.63692 15.503 3.61564 13.8748 2.99282 12.0785C1.87203 8.59408 3.18118 4.60503 6.84492 3.4245C8.77043 2.80462 10.8733 3.15891 12.4959 4.37654C14.1191 3.1604 16.2214 2.80623 18.147 3.4245C21.8107 4.60503 23.1293 8.59408 22.0084 12.0785C21.3856 13.8748 20.3644 15.503 19.0228 16.8388C17.1147 18.6933 15.0113 20.3311 12.7502 21.7227L12.5053 21.875L12.251 21.7227Z" stroke="#FF8300" stroke-width="1.5" stroke-linecap="round" stroke-linejoin="round"/>
<path d="M16.3951 7.34668C17.5048 7.70116 18.2932 8.69741 18.3918 9.86958" stroke="#FF8300" stroke-width="1.5" stroke-linecap="round" stroke-linejoin="round"/>
</svg>
