<svg width="14" height="14" viewBox="0 0 14 14" fill="none" xmlns="http://www.w3.org/2000/svg">
<path d="M8.12275 1.45996C8.35145 1.45994 8.57618 1.51968 8.77467 1.63325C8.97317 1.74683 9.13855 1.9103 9.25442 2.10746L9.72925 2.91654H10.9373C11.1863 2.91654 11.4328 2.96558 11.6628 3.06086C11.8929 3.15613 12.1019 3.29578 12.2779 3.47182C12.4539 3.64787 12.5936 3.85686 12.6889 4.08687C12.7841 4.31689 12.8332 4.56341 12.8332 4.81238V10.354C12.8332 10.603 12.7841 10.8495 12.6889 11.0795C12.5936 11.3096 12.4539 11.5186 12.2779 11.6946C12.1019 11.8706 11.8929 12.0103 11.6628 12.1056C11.4328 12.2008 11.1863 12.2499 10.9373 12.2499H3.06234C2.55953 12.2499 2.07732 12.0501 1.72178 11.6946C1.36624 11.3391 1.1665 10.8569 1.1665 10.354V4.81238C1.1665 4.30957 1.36624 3.82736 1.72178 3.47182C2.07732 3.11628 2.55953 2.91654 3.06234 2.91654H4.27567L4.78609 2.08588C4.90345 1.89467 5.06786 1.73674 5.26363 1.62716C5.4594 1.51759 5.67999 1.46002 5.90434 1.45996H8.12275ZM6.99984 4.66654C6.30364 4.66654 5.63597 4.94311 5.14368 5.43539C4.6514 5.92767 4.37484 6.59535 4.37484 7.29154C4.37484 7.98774 4.6514 8.65542 5.14368 9.1477C5.63597 9.63998 6.30364 9.91654 6.99984 9.91654C7.69603 9.91654 8.36371 9.63998 8.85599 9.1477C9.34828 8.65542 9.62484 7.98774 9.62484 7.29154C9.62484 6.59535 9.34828 5.92767 8.85599 5.43539C8.36371 4.94311 7.69603 4.66654 6.99984 4.66654ZM6.99984 5.54154C7.22965 5.54154 7.45721 5.58681 7.66953 5.67476C7.88185 5.7627 8.07477 5.8916 8.23727 6.05411C8.39978 6.21661 8.52868 6.40953 8.61663 6.62185C8.70457 6.83417 8.74984 7.06173 8.74984 7.29154C8.74984 7.52136 8.70457 7.74892 8.61663 7.96124C8.52868 8.17356 8.39978 8.36648 8.23727 8.52898C8.07477 8.69148 7.88185 8.82039 7.66953 8.90833C7.45721 8.99628 7.22965 9.04154 6.99984 9.04154C6.53571 9.04154 6.09059 8.85717 5.7624 8.52898C5.43421 8.20079 5.24984 7.75567 5.24984 7.29154C5.24984 6.82742 5.43421 6.3823 5.7624 6.05411C6.09059 5.72592 6.53571 5.54154 6.99984 5.54154Z" fill="white"/>
</svg>
