<svg width="24" height="24" viewBox="0 0 24 24" fill="none" xmlns="http://www.w3.org/2000/svg">
<path d="M18.6975 14.877L18.6975 14.877L18.6994 14.8803C18.9699 15.3241 19.0163 15.8426 18.8381 16.3155C18.6556 16.7999 18.2833 17.1606 17.8058 17.3175L17.8058 17.3175L17.8016 17.3189C15.9412 17.9422 13.9819 18.25 12.0199 18.25C10.058 18.25 8.09988 17.9422 6.2415 17.31L6.23999 17.3095C5.68441 17.1218 5.30781 16.7509 5.15601 16.3271L5.15604 16.3271L5.15388 16.3212C4.99081 15.8777 5.0364 15.3738 5.33289 14.8762C5.33323 14.8756 5.33357 14.875 5.33391 14.8745L6.3417 13.2081L6.34178 13.2082L6.34778 13.1979C6.49879 12.939 6.61974 12.6046 6.70242 12.3005C6.78495 11.997 6.84994 11.6479 6.84994 11.35V8.82C6.84994 6.79856 8.02611 5.04106 9.73397 4.19151L9.94146 4.0883L10.0546 3.88602C10.4439 3.18974 11.1754 2.75 11.9899 2.75C12.8208 2.75 13.5307 3.17561 13.917 3.85904L14.0334 4.06494L14.2468 4.16683C15.9872 4.99767 17.1899 6.77123 17.1899 8.82V11.35C17.1899 11.6479 17.2549 11.9969 17.3372 12.3009C17.42 12.6067 17.54 12.9401 17.6876 13.2002L17.6924 13.2087L17.6975 13.217L18.6975 14.877Z" stroke="#272727" stroke-width="1.5"/>
<path d="M14.8297 20.01C14.4097 21.17 13.2997 22 11.9997 22C11.2097 22 10.4297 21.68 9.87969 21.11C9.55969 20.81 9.31969 20.41 9.17969 20C9.30969 20.02 9.43969 20.03 9.57969 20.05C9.80969 20.08 10.0497 20.11 10.2897 20.13C10.8597 20.18 11.4397 20.21 12.0197 20.21C12.5897 20.21 13.1597 20.18 13.7197 20.13C13.9297 20.11 14.1397 20.1 14.3397 20.07C14.4997 20.05 14.6597 20.03 14.8297 20.01Z" fill="#272727"/>
</svg>
