<svg width="25" height="25" viewBox="0 0 25 25" fill="none" xmlns="http://www.w3.org/2000/svg">
<path d="M5.92063 12.0297C5.68627 10.5898 4.36256 9.66683 3.0137 9.66683H2.8335V9.31058V7.29183V6.25016C2.8335 6.08833 2.96333 5.9585 3.12516 5.9585H4.16683H6.25016H18.7502H20.8335H21.8752C22.037 5.9585 22.1668 6.08834 22.1668 6.25016V7.29183V9.31058V9.66683H21.9866C20.6378 9.66683 19.3141 10.5898 19.0797 12.0296C18.7918 13.7983 20.1544 15.3335 21.8752 15.3335H21.8785H21.8819H21.8853H21.8886H21.892H21.8954H21.8987H21.9021H21.9054H21.9088H21.9121H21.9155H21.9188H21.9222H21.9255H21.9288H21.9322H21.9355H21.9388H21.9421H21.9455H21.9488H21.9521H21.9554H21.9587H21.962H21.9653H21.9686H21.9719H21.9752H21.9785H21.9818H21.9851H21.9884H21.9916H21.9949H21.9982H22.0015H22.0047H22.008H22.0112H22.0145H22.0178H22.021H22.0243H22.0275H22.0307H22.034H22.0372H22.0404H22.0437H22.0469H22.0501H22.0533H22.0565H22.0597H22.063H22.0662H22.0694H22.0726H22.0758H22.0789H22.0821H22.0853H22.0885H22.0917H22.0948H22.098H22.1012H22.1043H22.1075H22.1106H22.1138H22.1169H22.1201H22.1232H22.1264H22.1295H22.1326H22.1357H22.1389H22.142H22.1451H22.1482H22.1513H22.1544H22.1575H22.1606H22.1637H22.1668H22.1668V15.6897V17.7085V18.7502C22.1668 18.912 22.037 19.0418 21.8752 19.0418H20.8335H18.7502H6.25016H4.16683H3.12516C2.96333 19.0418 2.8335 18.912 2.8335 18.7502V17.7085V15.6897V15.3335H3.12516C4.84588 15.3335 6.20858 13.7983 5.92063 12.0297ZM5.92063 12.0297L5.18037 12.1502M5.92063 12.0297L5.18037 12.1502M5.18037 12.1502C5.39287 13.4554 4.39079 14.5835 3.12516 14.5835H2.8335V10.4168H3.0137C4.0512 10.4168 5.0137 11.1262 5.18037 12.1502ZM11.4585 18.4585H12.2085V17.7085V15.6252V14.8752H11.4585H9.37516H8.62516V15.6252V17.7085V18.4585H9.37516H11.4585ZM11.4585 14.2918H12.2085V13.5418V11.4585V10.7085H11.4585H9.37516H8.62516V11.4585V13.5418V14.2918H9.37516H11.4585ZM11.4585 10.1252H12.2085V9.37516V7.29183V6.54183H11.4585H9.37516H8.62516V7.29183V9.37516V10.1252H9.37516H11.4585Z" stroke="#FF8300" stroke-width="1.5"/>
</svg>
