<svg width="24" height="24" viewBox="0 0 24 24" fill="none" xmlns="http://www.w3.org/2000/svg">
<g clip-path="url(#clip0_78_2168)">
<path d="M15.25 13C15.25 14.7949 13.7949 16.25 12 16.25C10.2051 16.25 8.75 14.7949 8.75 13C8.75 11.2051 10.2051 9.75 12 9.75C13.7949 9.75 15.25 11.2051 15.25 13Z" stroke="#8F959E" stroke-width="1.5"/>
<path d="M7.17 5.75H7.50033L7.72333 5.50629L9.33033 3.75H14.6697L16.2767 5.50629L16.4997 5.75H16.83H20C20.6858 5.75 21.25 6.31421 21.25 7V19C21.25 19.6858 20.6858 20.25 20 20.25H4C3.31421 20.25 2.75 19.6858 2.75 19V7C2.75 6.31421 3.31421 5.75 4 5.75H7.17Z" stroke="#8F959E" stroke-width="1.5"/>
</g>
<defs>
<clipPath id="clip0_78_2168">
<rect width="24" height="24" fill="white"/>
</clipPath>
</defs>
</svg>
