<svg width="10" height="10" viewBox="0 0 10 10" fill="none" xmlns="http://www.w3.org/2000/svg">
<path d="M5.30811 1.05966C5.12622 1.20352 4.86928 1.20342 4.68749 1.05943C3.99789 0.513188 3.11235 0.358358 2.3037 0.633104L5.30811 1.05966ZM5.30811 1.05966C5.99805 0.513999 6.88353 0.35914 7.69243 0.633179C9.20059 1.14629 9.84169 2.92929 9.32754 4.62434C9.03556 5.51069 8.55875 6.31157 7.93557 6.96717C7.03886 7.88684 6.05499 8.70329 5.00031 9.40342M5.30811 1.05966L5.00031 9.40342M5.00031 9.40342C3.94565 8.70329 2.96179 7.88685 2.06507 6.96719C1.44191 6.31159 0.965083 5.51071 0.673101 4.62437C0.158571 2.92809 0.796293 1.14589 2.30357 0.633147L5.00031 9.40342Z" stroke="#FF8300" stroke-linecap="round" stroke-linejoin="round"/>
</svg>
