<svg width="279" height="232" viewBox="0 0 279 232" fill="none" xmlns="http://www.w3.org/2000/svg">
<path d="M199.319 52.5228H197.336C196.945 52.5228 196.628 52.8404 196.628 53.2322V79.8793C196.628 80.2711 196.945 80.5887 197.336 80.5887H199.319C199.71 80.5887 200.026 80.2711 200.026 79.8793V53.2322C200.026 52.8404 199.71 52.5228 199.319 52.5228Z" fill="#272727"/>
<path d="M186.409 0H96.8272C90.1708 0 84.7747 5.40737 84.7747 12.0777V219.457C84.7747 226.127 90.1708 231.535 96.8272 231.535H186.409C193.065 231.535 198.461 226.127 198.461 219.457V12.0777C198.461 5.40737 193.065 0 186.409 0Z" fill="#272727"/>
<path d="M182.638 6.03075H169.597V7.6028C169.597 8.58134 169.405 9.5503 169.031 10.4543C168.657 11.3583 168.109 12.1796 167.418 12.8714C166.728 13.5631 165.908 14.1117 165.006 14.4858C164.103 14.86 163.136 15.0522 162.16 15.0517H120.686C119.709 15.0522 118.742 14.86 117.84 14.4858C116.937 14.1117 116.118 13.5631 115.427 12.8714C114.736 12.1796 114.188 11.3583 113.814 10.4543C113.441 9.5503 113.248 8.58134 113.248 7.6028V6.03075H101.038C98.6435 6.03075 96.3469 6.98401 94.6536 8.68082C92.9604 10.3776 92.0091 12.679 92.0091 15.0787V216.472C92.0091 218.872 92.9604 221.173 94.6536 222.87C96.3469 224.567 98.6435 225.52 101.038 225.52H182.638C185.033 225.52 187.329 224.567 189.023 222.87C190.716 221.173 191.667 218.872 191.667 216.472V15.0941C191.669 13.9047 191.437 12.7264 190.984 11.6269C190.531 10.5274 189.867 9.52811 189.028 8.68629C188.189 7.84447 187.193 7.17663 186.097 6.72096C185 6.26529 183.825 6.03075 182.638 6.03075Z" fill="#FCFCFC"/>
<path d="M145.331 6.91454H131.848C131.188 6.91454 130.652 7.45125 130.652 8.11332V8.94442C130.652 9.60649 131.188 10.1432 131.848 10.1432H145.331C145.992 10.1432 146.527 9.60649 146.527 8.94442V8.11332C146.527 7.45125 145.992 6.91454 145.331 6.91454Z" fill="#E6E8EC"/>
<path d="M150.759 10.3628C151.769 10.3628 152.588 9.54189 152.588 8.52928C152.588 7.51667 151.769 6.69579 150.759 6.69579C149.748 6.69579 148.929 7.51667 148.929 8.52928C148.929 9.54189 149.748 10.3628 150.759 10.3628Z" fill="#E6E8EC"/>
<path d="M142.312 140.161C154.19 140.161 163.818 130.513 163.818 118.61C163.818 106.708 154.19 97.0589 142.312 97.0589C130.435 97.0589 120.806 106.708 120.806 118.61C120.806 130.513 130.435 140.161 142.312 140.161Z" fill="#FCFCFC"/>
<path d="M170.599 115.601C170.599 121.298 168.913 126.867 165.754 131.603C162.596 136.34 158.106 140.032 152.854 142.212C147.602 144.392 141.822 144.962 136.246 143.85C130.671 142.739 125.549 139.995 121.529 135.967C117.51 131.938 114.772 126.806 113.663 121.218C112.554 115.631 113.124 109.839 115.299 104.576C117.475 99.3129 121.16 94.8144 125.887 91.6496C130.614 88.4847 136.171 86.7955 141.856 86.7957C145.631 86.7958 149.368 87.541 152.856 88.9887C156.343 90.4363 159.512 92.5581 162.181 95.2329C164.85 97.9077 166.967 101.083 168.411 104.578C169.856 108.073 170.599 111.818 170.599 115.601ZM138.533 130.847L159.855 109.481C160.028 109.308 160.165 109.103 160.258 108.878C160.352 108.652 160.4 108.41 160.4 108.166C160.4 107.922 160.352 107.68 160.258 107.455C160.165 107.229 160.028 107.024 159.855 106.852L157.232 104.242C157.06 104.069 156.856 103.932 156.631 103.838C156.406 103.745 156.165 103.697 155.922 103.697C155.678 103.697 155.437 103.745 155.213 103.838C154.988 103.932 154.784 104.069 154.612 104.242L137.222 121.669L129.102 113.513C128.753 113.166 128.282 112.971 127.79 112.971C127.298 112.971 126.827 113.166 126.478 113.513L123.855 116.157C123.508 116.507 123.314 116.979 123.314 117.472C123.314 117.964 123.508 118.437 123.855 118.786L135.91 130.863C136.082 131.036 136.287 131.173 136.512 131.267C136.737 131.36 136.978 131.408 137.222 131.408C137.466 131.408 137.707 131.36 137.932 131.267C138.157 131.173 138.362 131.036 138.534 130.863L138.533 130.847Z" fill="#FF8300"/>
<path d="M255.01 230.96C262.692 230.96 268.919 229.904 268.919 228.603C268.919 227.301 262.692 226.246 255.01 226.246C247.329 226.246 241.102 227.301 241.102 228.603C241.102 229.904 247.329 230.96 255.01 230.96Z" fill="#FF8300"/>
<path d="M260.763 224.748C261.397 224.229 261.859 223.529 262.088 222.741C262.26 221.948 261.922 221.007 261.16 220.7C260.309 220.374 259.398 220.967 258.711 221.563C258.024 222.159 257.231 222.842 256.328 222.714C256.793 222.293 257.141 221.758 257.338 221.162C257.535 220.566 257.575 219.929 257.453 219.313C257.413 219.058 257.304 218.818 257.139 218.62C256.668 218.114 255.81 218.329 255.247 218.731C253.448 219.996 252.946 222.448 252.936 224.647C252.753 223.854 252.908 223.025 252.901 222.221C252.895 221.417 252.677 220.486 251.988 220.062C251.564 219.833 251.086 219.721 250.605 219.736C249.795 219.705 248.896 219.788 248.342 220.38C247.651 221.115 247.837 222.349 248.432 223.153C249.027 223.958 249.937 224.474 250.774 225.032C251.443 225.432 252.014 225.979 252.444 226.63C252.495 226.721 252.537 226.818 252.567 226.918H257.621C258.76 226.34 259.817 225.611 260.762 224.75L260.763 224.748Z" fill="#FF8300"/>
<path d="M65.9073 232C70.9767 232 75.0863 231.303 75.0863 230.444C75.0863 229.585 70.9767 228.889 65.9073 228.889C60.8379 228.889 56.7284 229.585 56.7284 230.444C56.7284 231.303 60.8379 232 65.9073 232Z" fill="#EFEFEF"/>
<path d="M69.7036 227.901C70.1219 227.558 70.4267 227.096 70.5778 226.576C70.6444 226.315 70.62 226.039 70.5087 225.794C70.3975 225.549 70.206 225.35 69.9661 225.228C69.4044 225.014 68.8041 225.405 68.35 225.798C67.8959 226.192 67.3729 226.642 66.7772 226.558C67.0838 226.28 67.3133 225.927 67.4433 225.534C67.5734 225.14 67.5995 224.72 67.5191 224.314C67.4923 224.145 67.4206 223.987 67.3114 223.856C67.0022 223.522 66.4347 223.664 66.0628 223.929C64.8758 224.766 64.5448 226.381 64.538 227.834C64.4171 227.31 64.5197 226.764 64.5151 226.233C64.5104 225.702 64.3667 225.089 63.9123 224.808C63.632 224.657 63.3171 224.583 62.9992 224.593C62.465 224.573 61.8715 224.628 61.5061 225.019C61.0496 225.504 61.1729 226.318 61.5655 226.849C61.9581 227.379 62.5584 227.721 63.1111 228.088C63.5529 228.352 63.9297 228.712 64.2137 229.141C64.2479 229.201 64.2755 229.265 64.2959 229.331H67.631C68.383 228.949 69.0802 228.468 69.7036 227.899V227.901Z" fill="#EFEFEF"/>
<path d="M13.9968 232C19.0662 232 23.1757 231.303 23.1757 230.444C23.1757 229.585 19.0662 228.889 13.9968 228.889C8.92741 228.889 4.81786 229.585 4.81786 230.444C4.81786 231.303 8.92741 232 13.9968 232Z" fill="#EFEFEF"/>
<path d="M17.7931 227.901C18.2114 227.558 18.5162 227.096 18.6673 226.576C18.7338 226.315 18.7095 226.039 18.5982 225.794C18.4869 225.549 18.2955 225.35 18.0555 225.228C17.4939 225.014 16.8935 225.405 16.4395 225.798C15.9854 226.192 15.4623 226.642 14.8667 226.558C15.1733 226.28 15.4028 225.927 15.5328 225.534C15.6628 225.14 15.6889 224.72 15.6085 224.314C15.5818 224.145 15.51 223.987 15.4008 223.856C15.0917 223.522 14.5242 223.664 14.1523 223.929C12.9653 224.766 12.6342 226.381 12.6274 227.834C12.5066 227.31 12.6092 226.764 12.6045 226.233C12.5999 225.702 12.4562 225.089 12.0018 224.808C11.7215 224.657 11.4066 224.583 11.0886 224.593C10.5545 224.573 9.96098 224.628 9.5956 225.019C9.13903 225.504 9.26236 226.318 9.65494 226.849C10.0475 227.379 10.6478 227.721 11.2005 228.088C11.6423 228.352 12.0192 228.712 12.3032 229.141C12.3374 229.201 12.3649 229.265 12.3854 229.331H15.7204C16.4724 228.949 17.1696 228.468 17.7931 227.899V227.901Z" fill="#EFEFEF"/>
<path d="M278.999 231.111H0V231.675H278.999V231.111Z" fill="#272727"/>
<path d="M265.381 15.6503C265.381 15.6503 236.255 13.8893 239.687 34.3405C239.687 34.3405 238.995 37.9558 242.274 39.5954C242.274 39.5954 242.326 38.0806 245.263 38.597C246.308 38.7706 247.37 38.8218 248.428 38.7494C249.854 38.6554 251.211 38.0994 252.295 37.1653C252.295 37.1653 260.482 33.7752 263.665 20.3677C263.665 20.3677 266.02 17.4423 265.927 16.6899L261.012 18.7938C261.012 18.7938 262.693 22.3468 261.358 25.2988C261.358 25.2988 261.199 18.9208 260.254 19.0595C260.064 19.0874 257.702 20.2899 257.702 20.2899C257.702 20.2899 260.59 26.4772 258.411 30.9768C258.411 30.9768 259.237 23.351 256.799 20.7372L253.34 22.7615C253.34 22.7615 256.716 29.1535 254.426 34.3703C254.426 34.3703 255.013 26.37 252.61 23.2538L249.476 25.7043C249.476 25.7043 252.648 32.0024 250.714 36.3292C250.714 36.3292 250.462 27.0186 248.798 26.3152C248.798 26.3152 246.055 28.7415 245.636 29.7328C245.636 29.7328 247.808 34.3083 246.459 36.7208C246.459 36.7208 245.633 30.5162 244.954 30.4815C244.954 30.4815 242.222 34.5924 241.938 37.414C241.938 37.414 242.056 33.2232 244.294 30.0933C244.294 30.0933 241.651 30.5475 240.108 32.2617C240.108 32.2617 240.533 29.357 244.968 29.1006C244.968 29.1006 247.227 25.9809 247.829 25.7938C247.829 25.7938 243.422 25.4221 240.748 26.6119C240.748 26.6119 243.1 23.8702 248.638 25.1179L251.734 22.584C251.734 22.584 245.93 21.7901 243.467 22.6674C243.467 22.6674 246.3 20.241 252.568 22.0088L255.937 19.9913C255.937 19.9913 250.987 18.9236 248.04 19.2981C248.04 19.2981 251.153 17.617 256.926 19.4402L259.348 18.3561C259.348 18.3561 255.723 17.6421 254.66 17.5278C253.598 17.4135 253.543 17.1223 253.543 17.1223C255.84 16.7386 258.198 17.0014 260.354 17.8815C260.354 17.8815 265.467 15.9727 265.381 15.6503Z" fill="#FF8300"/>
<path d="M225.475 4.82321C225.475 4.82321 212.33 4.02929 213.866 13.2705C213.866 13.2705 213.557 14.9033 215.035 15.6448C215.035 15.6448 215.059 14.9516 216.388 15.1907C216.859 15.2703 217.339 15.2936 217.816 15.2601C218.461 15.2173 219.075 14.964 219.563 14.539C219.563 14.539 223.264 13.0069 224.703 6.94789C224.703 6.94789 225.765 5.62736 225.723 5.28755L223.502 6.23729C223.502 6.23729 224.26 7.84217 223.665 9.17664C223.665 9.17664 223.592 6.29583 223.167 6.36212C223.08 6.36212 222.011 6.9197 222.011 6.9197C222.011 6.9197 223.319 9.71687 222.333 11.7483C222.333 11.7483 222.707 8.3028 221.603 7.12074L220.04 8.05003C220.04 8.05003 221.565 10.9373 220.531 13.2946C220.531 13.2946 220.797 9.67939 219.711 8.27213L218.296 9.38139C218.296 9.38139 219.728 12.2272 218.857 14.1827C218.857 14.1827 218.739 9.97459 217.988 9.65584C217.988 9.65584 216.75 10.7512 216.56 11.2019C216.56 11.2019 217.542 13.2816 216.933 14.3596C216.933 14.3596 216.56 11.5553 216.242 11.5408C216.242 11.5408 215.007 13.3993 214.879 14.6604C214.941 13.484 215.308 12.3442 215.944 11.3537C215.232 11.4889 214.574 11.8299 214.052 12.3347C214.052 12.3347 214.246 11.021 216.249 10.9067C216.249 10.9067 217.286 9.49601 217.542 9.40927C217.542 9.40927 215.55 9.24293 214.343 9.78099C214.343 9.78099 215.405 8.54348 217.906 9.10508L219.289 7.96113C219.289 7.96113 216.665 7.61109 215.552 7.99706C215.552 7.99706 216.832 6.90173 219.665 7.69906L221.187 6.78743C221.187 6.78743 218.949 6.30574 217.617 6.47766C217.617 6.47766 219.025 5.71843 221.633 6.53962L222.723 6.05081C222.723 6.05081 221.085 5.72834 220.602 5.6763C220.12 5.62426 220.097 5.49261 220.097 5.49261C221.136 5.31951 222.202 5.43953 223.176 5.83924C223.176 5.83924 225.515 4.96756 225.475 4.82321Z" fill="#272727"/>
<path d="M44.6947 145.902C44.6947 145.902 31.5505 145.108 33.0862 154.349C33.0862 154.349 32.777 155.982 34.2552 156.723C34.2552 156.723 34.2793 156.03 35.6076 156.269C36.0794 156.349 36.5588 156.372 37.036 156.338C37.6813 156.296 38.2948 156.042 38.7829 155.617C38.7829 155.617 42.484 154.085 43.9229 148.026C43.9229 148.026 44.9847 146.706 44.943 146.366L42.7223 147.316C42.7223 147.316 43.4799 148.92 42.8849 150.255C42.8849 150.255 42.8122 147.374 42.3869 147.44C42.3003 147.44 41.2314 147.998 41.2314 147.998C41.2314 147.998 42.539 150.795 41.5532 152.827C41.5532 152.827 41.9266 149.381 40.8234 148.199L39.2598 149.128C39.2598 149.128 40.7853 152.016 39.751 154.373C39.751 154.373 40.0175 150.758 38.9313 149.35L37.5164 150.46C37.5164 150.46 38.9486 153.305 38.0768 155.261C38.0768 155.261 37.9594 151.053 37.2085 150.734C37.2085 150.734 35.9702 151.829 35.7798 152.28C35.7798 152.28 36.7622 154.36 36.1535 155.438C36.1535 155.438 35.7798 152.634 35.4617 152.619C35.4617 152.619 34.2268 154.478 34.0988 155.739C34.1607 154.562 34.5279 153.422 35.1643 152.432C34.4517 152.567 33.7941 152.908 33.2722 153.413C33.2722 153.413 33.4661 152.099 35.4688 151.985C35.4688 151.985 36.5065 150.574 36.7625 150.488C36.7625 150.488 34.7702 150.321 33.5628 150.859C33.5628 150.859 34.6246 149.622 37.1257 150.183L38.5093 149.039C38.5093 149.039 35.8849 148.689 34.7721 149.075C34.7721 149.075 36.0518 147.98 38.8849 148.777L40.407 147.866C40.407 147.866 38.169 147.384 36.8373 147.556C36.8373 147.556 38.245 146.797 40.8533 147.618L41.943 147.129C41.943 147.129 40.3047 146.807 39.8224 146.755C39.3402 146.703 39.3173 146.571 39.3173 146.571C40.3557 146.398 41.4217 146.518 42.3959 146.918C42.3959 146.918 44.7352 146.046 44.6947 145.902Z" fill="#272727"/>
</svg>
