<svg width="30" height="30" viewBox="0 0 30 30" fill="none" xmlns="http://www.w3.org/2000/svg">
<g clip-path="url(#clip0_78_2432)">
<path d="M27.7775 19.7099L27.4963 18.3037H24.3538L23.8538 19.6999L21.335 19.7049C22.5341 16.8213 23.7358 13.9388 24.94 11.0574C25.145 10.5687 25.5088 10.3199 26.045 10.3224C26.455 10.3262 27.1237 10.3262 28.0525 10.3237L30 19.7062L27.7775 19.7099ZM25.0612 16.3774H27.0863L26.33 12.8524L25.0612 16.3774ZM8.825 10.3212L11.3575 10.3237L7.4425 19.7112L4.87875 19.7087C4.23406 17.2291 3.59739 14.7474 2.96875 12.2637C2.84375 11.7687 2.59625 11.4224 2.12 11.2587C1.69625 11.1124 0.99 10.8874 0 10.5812V10.3249H4.04625C4.74625 10.3249 5.155 10.6637 5.28625 11.3587C5.41875 12.0549 5.75125 13.8274 6.28625 16.6762L8.825 10.3212ZM14.8375 10.3237L12.835 19.7087L10.425 19.7062L12.425 10.3212L14.8375 10.3237ZM19.725 10.1499C20.4462 10.1499 21.355 10.3749 21.8775 10.5812L21.455 12.5274C20.9825 12.3374 20.205 12.0812 19.5513 12.0899C18.6012 12.1062 18.0138 12.5049 18.0138 12.8874C18.0138 13.5099 19.0337 13.8237 20.0837 14.5037C21.2825 15.2787 21.44 15.9749 21.425 16.7312C21.4087 18.3012 20.0837 19.8499 17.2887 19.8499C16.0138 19.8312 15.5538 19.7237 14.5138 19.3549L14.9538 17.3237C16.0125 17.7674 16.4613 17.9087 17.3662 17.9087C18.195 17.9087 18.9062 17.5737 18.9125 16.9899C18.9175 16.5749 18.6625 16.3687 17.7325 15.8562C16.8025 15.3424 15.4975 14.6312 15.515 13.2037C15.5362 11.3762 17.2675 10.1499 19.7262 10.1499H19.725Z" fill="#FEFEFE"/>
</g>
<defs>
<clipPath id="clip0_78_2432">
<rect width="30" height="30" fill="white"/>
</clipPath>
</defs>
</svg>
