<svg width="25" height="20" viewBox="0 0 25 20" fill="none" xmlns="http://www.w3.org/2000/svg">
<path d="M21.2271 9.15022L21.4269 9.0345L21.3862 9.1395L19.0866 15.0625H6.91336L4.61385 9.1395L4.572 9.03172L4.77599 9.15L7.26082 10.5907C7.26094 10.5908 7.26107 10.5909 7.26119 10.5909C7.26123 10.591 7.26126 10.591 7.2613 10.591C8.13359 11.0973 9.28111 10.8208 9.80235 9.93896C9.80238 9.9389 9.80241 9.93885 9.80244 9.9388C9.80251 9.93868 9.80258 9.93857 9.80264 9.93845L12.6039 5.20419L12.9368 4.64161L12.4249 4.23501C12.2172 4.07 12.1 3.83983 12.1 3.59375C12.1 3.15239 12.4785 2.75 13 2.75C13.5215 2.75 13.9 3.15239 13.9 3.59375C13.9 3.83983 13.7828 4.07 13.5751 4.23501L13.0632 4.64161L13.3961 5.20419L16.1974 9.93845C16.7189 10.8214 17.8628 11.0964 18.7373 10.5918L18.7383 10.5912L21.2271 9.15022ZM22.1999 8.66974L21.727 8.59666L21.5287 8.17926C21.476 8.06854 21.45 7.95881 21.45 7.84375C21.45 7.40239 21.8285 7 22.35 7C22.8715 7 23.25 7.40239 23.25 7.84375C23.25 8.28511 22.8715 8.6875 22.35 8.6875C22.3263 8.6875 22.2911 8.68383 22.1999 8.66974ZM4.47235 8.18445L4.28087 8.59544L3.80014 8.66974C3.70894 8.68383 3.67371 8.6875 3.65 8.6875C3.12854 8.6875 2.75 8.28511 2.75 7.84375C2.75 7.40438 3.12991 7 3.65344 7C4.17489 7 4.55344 7.40239 4.55344 7.84375C4.55344 7.95431 4.5261 8.06907 4.47235 8.18445ZM6.05 18.25V17.625H19.95V18.25H6.05Z" stroke="#FF8300" stroke-width="1.5"/>
</svg>
