<svg width="19" height="20" viewBox="0 0 19 20" fill="none" xmlns="http://www.w3.org/2000/svg">
<path d="M5.31809 4.91871C5.31809 2.62704 7.17585 0.769268 9.4675 0.769268C10.571 0.764591 11.631 1.1997 12.413 1.97838C13.195 2.75706 13.6345 3.81516 13.6345 4.91871M6.61918 9.24395H6.66314M12.2192 9.24395H12.2631M5.44995 19.2308H13.4675C16.4125 19.2308 18.6719 18.167 18.0302 13.8857L17.2829 8.08352C16.8873 5.94726 15.5247 5.12968 14.329 5.12968H4.55325C3.34007 5.12968 2.05656 6.00881 1.59941 8.08352L0.85216 13.8857C0.307112 17.6835 2.50491 19.2308 5.44995 19.2308Z" stroke="#8F959E" stroke-width="1.5" stroke-linecap="round" stroke-linejoin="round"/>
</svg>
