<svg width="25" height="25" viewBox="0 0 25 25" fill="none" xmlns="http://www.w3.org/2000/svg">
<path d="M5.13965 11.313L5.0238 12.1642H5.8828H6.7C6.72826 12.1642 6.76053 12.1749 6.792 12.2081C6.82421 12.2422 6.85 12.2956 6.85 12.3642V17.25C6.85 17.3185 6.82421 17.372 6.792 17.406C6.76053 17.4393 6.72826 17.45 6.7 17.45H5.8C5.20725 17.45 4.75 16.9803 4.75 16.4358V16.3V13.1783V12.5C4.75 7.63719 8.48931 3.75 13 3.75C17.5107 3.75 21.25 7.63719 21.25 12.5V13.1783V16.3V16.4358C21.25 16.9803 20.7927 17.45 20.2 17.45H19.45V18.2C19.45 19.9202 18.1335 21.25 16.6 21.25H14.8H13H11.95V19.9H14.05V20.1V20.85H14.8H16.6C18.0446 20.85 19.15 19.6233 19.15 18.2V17.25V16.3V12.3642C19.15 12.2956 19.1758 12.2422 19.208 12.2081C19.2395 12.1749 19.2717 12.1642 19.3 12.1642H20.1172H20.9762L20.8603 11.313C20.3145 7.30289 17.0321 4.15 13 4.15C8.96787 4.15 5.68546 7.30289 5.13965 11.313Z" stroke="#FF8300" stroke-width="1.5"/>
</svg>
