<svg width="24" height="24" viewBox="0 0 24 24" fill="none" xmlns="http://www.w3.org/2000/svg">
<path d="M12.4458 4.8017C12.1791 5.00154 11.8125 5.0014 11.5459 4.80136C10.1823 3.77809 8.41704 3.48123 6.80114 4.00138L12.4458 4.8017ZM12.4458 4.8017C13.8101 3.7795 15.5752 3.48266 17.1916 4.00153C20.2022 4.97193 21.3996 8.29001 20.4167 11.3578C19.8562 12.9704 18.9391 14.4316 17.7359 15.6306C15.9875 17.3294 14.0648 18.8345 12.0006 20.12M12.4458 4.8017L12.0006 20.12M12.0006 20.12C9.93642 18.8345 8.01371 17.3294 6.26532 15.6306C5.06211 14.4316 4.14502 12.9704 3.58451 11.3578C2.60103 8.28803 3.79167 4.97121 6.80095 4.00144L12.0006 20.12Z" stroke="#8F959E" stroke-width="1.5" stroke-linecap="round" stroke-linejoin="round"/>
</svg>
