<svg width="16" height="16" viewBox="0 0 16 16" fill="none" xmlns="http://www.w3.org/2000/svg">
<g clip-path="url(#clip0_78_3453)">
<path d="M6.00195 5.5C6.00195 5.89782 5.84392 6.27936 5.56261 6.56066C5.28131 6.84196 4.89978 7 4.50195 7C4.10413 7 3.7226 6.84196 3.44129 6.56066C3.15999 6.27936 3.00195 5.89782 3.00195 5.5C3.00195 5.10218 3.15999 4.72064 3.44129 4.43934C3.7226 4.15804 4.10413 4 4.50195 4C4.89978 4 5.28131 4.15804 5.56261 4.43934C5.84392 4.72064 6.00195 5.10218 6.00195 5.5Z" fill="black"/>
<path d="M14.6583 10.1666L15.252 10.4727V13C15.252 13.3315 15.1203 13.6495 14.8858 13.8839C14.6514 14.1183 14.3335 14.25 14.002 14.25H2.00195C1.67043 14.25 1.35249 14.1183 1.11807 13.8839C0.933841 13.6997 0.813058 13.4638 0.769781 13.2104L1.50046 12.5603L4.02354 10.3157L6.52214 11.9802L7.03367 12.3209L7.46828 11.8863L11.0487 8.30592L14.6583 10.1666Z" stroke="black" stroke-width="1.5"/>
</g>
<defs>
<clipPath id="clip0_78_3453">
<rect width="16" height="16" fill="white"/>
</clipPath>
</defs>
</svg>
