<svg width="25" height="25" viewBox="0 0 25 25" fill="none" xmlns="http://www.w3.org/2000/svg">
<path d="M7.50016 17.7502H7.1895L6.96983 17.9698L4.5835 20.3562V5.66683C4.5835 5.07271 5.07271 4.5835 5.66683 4.5835H20.3335C20.9276 4.5835 21.4168 5.07271 21.4168 5.66683V16.6668C21.4168 17.2609 20.9276 17.7502 20.3335 17.7502H7.50016Z" stroke="#FF8300" stroke-width="1.5"/>
<path d="M13 10.5403L13.155 11.0418H13.7082H13.7828L13.6906 11.1122L13.2749 11.4298L13.4293 11.9296L13.4448 11.9795L13 11.6398L12.5552 11.9795L12.5707 11.9296L12.7251 11.4298L12.3094 11.1122L12.2172 11.0418H12.2918H12.845L13 10.5403Z" stroke="#FF8300" stroke-width="1.5"/>
</svg>
