<svg width="20" height="20" viewBox="0 0 20 20" fill="none" xmlns="http://www.w3.org/2000/svg">
<path d="M16.1166 12.0748L15.2832 10.6915C15.1082 10.3832 14.9499 9.79984 14.9499 9.45817V7.34984C14.9499 5.3915 13.7999 3.69984 12.1416 2.90817C11.7082 2.1415 10.9082 1.6665 9.99156 1.6665C9.08323 1.6665 8.2666 2.15817 7.83326 2.93317C6.20826 3.7415 5.08326 5.4165 5.08326 7.34984V9.45817C5.08326 9.79984 4.92493 10.3832 4.74993 10.6832L3.90827 12.0748C3.57493 12.6332 3.49993 13.2498 3.70827 13.8165C3.90827 14.3748 4.38327 14.8082 4.99993 15.0165C6.6166 15.5665 8.3166 15.8332 10.0166 15.8332C11.7166 15.8332 13.4166 15.5665 15.0332 15.0248C15.6166 14.8332 16.0666 14.3915 16.2832 13.8165C16.4999 13.2415 16.4416 12.6082 16.1166 12.0748Z" fill="#FF8300"/>
<path d="M12.3581 16.6748C12.0081 17.6415 11.0831 18.3332 9.99973 18.3332C9.34139 18.3332 8.69139 18.0665 8.23305 17.5915C7.96639 17.3415 7.76639 17.0082 7.64972 16.6665C7.75805 16.6832 7.86639 16.6915 7.98305 16.7082C8.17472 16.7332 8.37473 16.7582 8.57473 16.7748C9.04973 16.8165 9.53306 16.8415 10.0164 16.8415C10.4914 16.8415 10.9664 16.8165 11.4331 16.7748C11.6081 16.7582 11.7831 16.7498 11.9497 16.7248C12.0831 16.7082 12.2164 16.6915 12.3581 16.6748Z" fill="#FF8300"/>
</svg>
