<svg width="16" height="16" viewBox="0 0 16 16" fill="none" xmlns="http://www.w3.org/2000/svg">
<path d="M4.49805 2.66649H6.80738C6.93406 2.66653 7.05601 2.71465 7.14857 2.80114C7.24114 2.88762 7.29743 3.00602 7.30606 3.13241C7.3147 3.2588 7.27504 3.38375 7.19509 3.48202C7.11515 3.58029 7.00088 3.64456 6.87538 3.66182L6.80738 3.66649H4.49805C4.11796 3.66644 3.75203 3.81069 3.47421 4.07007C3.19639 4.32945 3.02739 4.68463 3.00138 5.06382L2.99805 5.16649V11.4998C2.998 11.8799 3.14224 12.2458 3.40163 12.5237C3.66101 12.8015 4.01619 12.9705 4.39538 12.9965L4.49805 12.9998H10.8314C11.2115 12.9999 11.5774 12.8556 11.8552 12.5962C12.133 12.3369 12.302 11.9817 12.328 11.6025L12.3314 11.4998V11.1678C12.3303 11.0403 12.3779 10.9172 12.4646 10.8236C12.5513 10.7301 12.6704 10.6732 12.7976 10.6646C12.9249 10.656 13.0506 10.6963 13.1491 10.7774C13.2475 10.8584 13.3113 10.974 13.3274 11.1005L13.3314 11.1678V11.4998C13.3314 12.1398 13.086 12.7555 12.6458 13.2199C12.2055 13.6844 11.6038 13.9624 10.9647 13.9965L10.8314 13.9998H4.49805C3.85805 13.9999 3.2424 13.7545 2.77792 13.3142C2.31345 12.8739 2.03551 12.2722 2.00138 11.6332L1.99805 11.4998V5.16649C1.99799 4.52649 2.24338 3.91084 2.68367 3.44637C3.12397 2.98189 3.72563 2.70396 4.36471 2.66982L4.49805 2.66649ZM9.66671 4.36249V2.49982C9.66666 2.40785 9.69197 2.31765 9.73986 2.23913C9.78775 2.16062 9.85638 2.09684 9.93818 2.0548C10.02 2.01276 10.1118 1.9941 10.2035 2.00087C10.2952 2.00763 10.3833 2.03957 10.458 2.09316L10.5127 2.13916L14.5087 5.97249C14.6954 6.15116 14.7127 6.43916 14.56 6.63716L14.5087 6.69382L10.5127 10.5285C10.4464 10.5922 10.3638 10.6364 10.274 10.6562C10.1842 10.676 10.0906 10.6707 10.0037 10.6408C9.91671 10.6109 9.83968 10.5576 9.78105 10.4867C9.72243 10.4158 9.68448 10.3302 9.67138 10.2392L9.66671 10.1678V8.29982L9.45271 8.29582C7.68071 8.29049 6.16605 9.01782 4.87605 10.4965C4.54538 10.8752 3.92605 10.5845 4.00538 10.0885C4.55671 6.66182 6.40538 4.72516 9.46538 4.38249L9.66671 4.36249Z" fill="#212121"/>
</svg>
