<svg width="25" height="25" viewBox="0 0 25 25" fill="none" xmlns="http://www.w3.org/2000/svg">
<path d="M17.1071 7.29183C17.1071 9.73463 15.0648 11.7502 12.5 11.7502C9.93517 11.7502 7.89286 9.73463 7.89286 7.29183C7.89286 4.84903 9.93517 2.8335 12.5 2.8335C15.0648 2.8335 17.1071 4.84903 17.1071 7.29183ZM12.5 15.2033C13.6392 15.2033 14.7243 14.9681 15.707 14.5522H16.25C18.9613 14.5522 21.125 16.6858 21.125 19.271V20.9637C21.125 21.608 20.581 22.1668 19.8661 22.1668H5.13393C4.41899 22.1668 3.875 21.608 3.875 20.9637V19.271C3.875 16.6858 6.03869 14.5522 8.75 14.5522H9.29355C10.2786 14.9677 11.3599 15.2033 12.5 15.2033Z" stroke="#FF8300" stroke-width="1.5"/>
</svg>
